<svg width="18px" height="18px" viewBox="0 0 18 18" fill="none" xmlns="http://www.w3.org/2000/svg" class="shrink-0 w-[18px] h-[18px]" color="currentColor"><path d="M15.9375 9.5625C15.9375 8.31982 14.9302 7.3125 13.6875 7.3125H4.3125C3.06986 7.3125 2.0625 8.31982 2.0625 9.5625M6.54436 2.8125H4.3125C3.06986 2.8125 2.0625 3.81986 2.0625 5.0625V12.1875C2.0625 13.4302 3.06986 14.4375 4.3125 14.4375H13.6875C14.9302 14.4375 15.9375 13.4302 15.9375 12.1875V6.5625C15.9375 5.31986 14.9302 4.3125 13.6875 4.3125H9.91395C9.3279 4.3125 8.76495 4.08382 8.34495 3.67513L8.11342 3.44987C7.69335 3.04118 7.13042 2.8125 6.54436 2.8125Z" stroke="currentColor" stroke-width="1.5" stroke-linecap="round" stroke-linejoin="round"></path></svg>